<svg width="164" height="164" fill="none" xmlns="http://www.w3.org/2000/svg"><path d="M82 0C36.785 0 0 36.786 0 82c0 45.215 36.785 82 82 82s82-36.785 82-82c0-45.214-36.785-82-82-82Zm0 149.091c-36.994 0-67.09-30.097-67.09-67.09 0-36.994 30.096-67.092 67.09-67.092S149.091 45.007 149.091 82c0 36.994-30.097 67.091-67.091 67.091Z" fill="#2B5551"/><path d="M81.999 34.788c-5.48 0-9.937 4.46-9.937 9.944 0 5.478 4.457 9.935 9.937 9.935 5.48 0 9.937-4.457 9.937-9.935 0-5.483-4.457-9.944-9.937-9.944ZM82 69.576a7.455 7.455 0 0 0-7.454 7.454v44.728a7.455 7.455 0 0 0 14.908 0V77.03A7.455 7.455 0 0 0 82 69.576Z" fill="#2B5551"/></svg>